<svg width="34" height="34" viewBox="0 0 34 34" fill="none" xmlns="http://www.w3.org/2000/svg">
<path d="M9.91675 25.5C8.35842 25.5 7.09758 26.775 7.09758 28.3334C7.09758 29.8917 8.35842 31.1667 9.91675 31.1667C11.4751 31.1667 12.7501 29.8917 12.7501 28.3334C12.7501 26.775 11.4751 25.5 9.91675 25.5ZM1.41675 2.83337V5.66671H4.25008L9.35008 16.4192L7.43758 19.89C7.21092 20.2867 7.08342 20.7542 7.08342 21.25C7.08342 22.8084 8.35842 24.0834 9.91675 24.0834H26.9167V21.25H10.5117C10.3134 21.25 10.1576 21.0942 10.1576 20.8959L10.2001 20.7259L11.4751 18.4167H22.0292C23.0917 18.4167 24.0267 17.8359 24.5084 16.9575L29.5801 7.76337C29.6934 7.56504 29.7501 7.32421 29.7501 7.08337C29.7501 6.30421 29.1126 5.66671 28.3334 5.66671H7.38092L6.04925 2.83337H1.41675ZM24.0834 25.5C22.5251 25.5 21.2642 26.775 21.2642 28.3334C21.2642 29.8917 22.5251 31.1667 24.0834 31.1667C25.6418 31.1667 26.9167 29.8917 26.9167 28.3334C26.9167 26.775 25.6418 25.5 24.0834 25.5Z" fill="#E7E7E7"/>
</svg>
