<svg width="24" height="24" viewBox="0 0 24 24" fill="none" xmlns="http://www.w3.org/2000/svg">
<path d="M5.12954 2.95396C5.48563 2.34194 6.14831 1.96423 6.86603 1.96423H17.134C17.8517 1.96423 18.5144 2.34194 18.8704 2.95396L20.0133 4.91825C20.6612 6.03191 20.0618 7.37689 18.9235 7.75428C18.9276 7.83412 18.9269 7.91514 18.9209 7.99704L18.0638 19.7828C17.989 20.8107 17.1181 21.6071 16.0689 21.6071H7.9311C6.88182 21.6071 6.01094 20.8107 5.93618 19.7828L5.07904 7.99704C5.07308 7.91514 5.07231 7.83412 5.07645 7.75427C3.93813 7.37687 3.33874 6.0319 3.98668 4.91825L5.12954 2.95396ZM7.07396 7.85709L7.28824 10.8035H16.7117L16.926 7.85709H7.07396ZM7.71681 16.6964L7.9311 19.6428H16.0689L16.2831 16.6964H7.71681ZM18.2768 5.89281L17.134 3.92852L6.86603 3.92852L5.72317 5.89281H18.2768Z" fill="#E7F2EC"/>
</svg>
