<svg width="20" height="12" viewBox="0 0 20 12" fill="none" xmlns="http://www.w3.org/2000/svg">
<path fill-rule="evenodd" clip-rule="evenodd" d="M16.7411 6.518C12.5399 6.50856 8.49926 8.13119 5.47147 11.0436C4.84417 11.6237 4.0142 11.9341 3.16024 11.9083C2.30629 11.8824 1.49665 11.5222 0.90563 10.9052C0.314613 10.2883 -0.0105091 9.46396 0.000259203 8.60968C0.0110275 7.7554 0.356825 6.93951 0.963204 6.33767C5.20406 2.26276 10.8598 -0.00901943 16.7411 2.69139e-05C17.6054 2.69139e-05 18.4343 0.343384 19.0455 0.954562C19.6567 1.56574 20 2.39468 20 3.25901C20 4.12335 19.6567 4.95229 19.0455 5.56347C18.4343 6.17465 17.6054 6.518 16.7411 6.518Z" fill="#E7E7E7"/>
</svg>
