<svg width="24" height="24" viewBox="0 0 24 24" fill="none" xmlns="http://www.w3.org/2000/svg">
<g clip-path="url(#clip0_0_146)">
<path d="M23 5.375V19.5455C23 21.6955 21.2 23.4545 19 23.4545H11.7C10.62 23.4545 9.6 23.0343 8.85 22.2916L1 14.493C1 14.493 2.26 13.2909 2.3 13.2714C2.52 13.0857 2.79 12.988 3.09 12.988C3.31 12.988 3.51 13.0466 3.69 13.1443C3.73 13.1541 8 15.5484 8 15.5484V3.90909C8 3.09795 8.67 2.44318 9.5 2.44318C10.33 2.44318 11 3.09795 11 3.90909V10.75H12V1.46591C12 0.654773 12.67 0 13.5 0C14.33 0 15 0.654773 15 1.46591V10.75H16V2.44318C16 1.63205 16.67 0.977273 17.5 0.977273C18.33 0.977273 19 1.63205 19 2.44318V10.75H20V5.375C20 4.56386 20.67 3.90909 21.5 3.90909C22.33 3.90909 23 4.56386 23 5.375Z" fill="#E7F2EC"/>
</g>
<defs>
<clipPath id="clip0_0_146">
<rect width="24" height="23.4545" fill="white"/>
</clipPath>
</defs>
</svg>
