<svg width="380" height="487" viewBox="0 0 380 487" fill="none" xmlns="http://www.w3.org/2000/svg">
<path fill-rule="evenodd" clip-rule="evenodd" d="M68.8055 14.057C70.3574 4.87325 79.0605 -1.31353 88.2442 0.238455L365.943 47.1676C375.127 48.7195 381.314 57.4226 379.762 66.6063L336.415 323.104C320.117 320.35 304.695 331.193 301.969 347.323C299.243 363.452 310.246 378.761 326.544 381.515L311.194 472.346C309.642 481.53 300.939 487.716 291.756 486.164L14.0569 439.235C4.87317 437.683 -1.3136 428.98 0.238389 419.797L15.5881 328.966C31.8864 331.72 47.3086 320.877 50.0344 304.747C52.7602 288.618 41.7575 273.309 25.4592 270.555L68.8055 14.057Z" fill="#E7E7E7"/>
</svg>
