<svg width="34" height="34" viewBox="0 0 34 34" fill="none" xmlns="http://www.w3.org/2000/svg">
<path d="M27.5259 18.3884C27.5825 17.935 27.625 17.4817 27.625 17C27.625 16.5184 27.5825 16.065 27.5259 15.6117L30.515 13.2742C30.7842 13.0617 30.855 12.6792 30.685 12.3675L27.8517 7.46587C27.6817 7.15421 27.2992 7.04087 26.9875 7.15421L23.46 8.57087C22.7234 8.00421 21.93 7.53671 21.0659 7.18254L20.5275 3.42837C20.485 3.08837 20.1875 2.83337 19.8334 2.83337H14.1667C13.8125 2.83337 13.515 3.08837 13.4725 3.42837L12.9342 7.18254C12.07 7.53671 11.2767 8.01837 10.54 8.57087L7.01252 7.15421C6.68668 7.02671 6.31835 7.15421 6.14835 7.46587L3.31502 12.3675C3.13085 12.6792 3.21585 13.0617 3.48502 13.2742L6.47418 15.6117C6.41752 16.065 6.37502 16.5325 6.37502 17C6.37502 17.4675 6.41752 17.935 6.47418 18.3884L3.48502 20.7259C3.21585 20.9384 3.14502 21.3209 3.31502 21.6325L6.14835 26.5342C6.31835 26.8459 6.70085 26.9592 7.01252 26.8459L10.54 25.4292C11.2767 25.9959 12.07 26.4634 12.9342 26.8175L13.4725 30.5717C13.515 30.9117 13.8125 31.1667 14.1667 31.1667H19.8334C20.1875 31.1667 20.485 30.9117 20.5275 30.5717L21.0659 26.8175C21.93 26.4634 22.7234 25.9817 23.46 25.4292L26.9875 26.8459C27.3134 26.9734 27.6817 26.8459 27.8517 26.5342L30.685 21.6325C30.855 21.3209 30.7842 20.9384 30.515 20.7259L27.5259 18.3884ZM17 21.9584C14.2659 21.9584 12.0417 19.7342 12.0417 17C12.0417 14.2659 14.2659 12.0417 17 12.0417C19.7342 12.0417 21.9584 14.2659 21.9584 17C21.9584 19.7342 19.7342 21.9584 17 21.9584Z" fill="#E7E7E7"/>
</svg>
