<svg width="336" height="474" viewBox="0 0 336 474" fill="none" xmlns="http://www.w3.org/2000/svg">
<path fill-rule="evenodd" clip-rule="evenodd" d="M4.57764e-05 17.9546C4.57764e-05 8.03854 8.03857 0 17.9546 0H317.796C327.712 0 335.75 8.03852 335.75 17.9545L335.75 294.904C318.152 294.904 303.886 309.022 303.886 326.438C303.886 343.854 318.152 357.972 335.75 357.972L335.75 456.045C335.75 465.961 327.712 474 317.796 474H17.9546C8.03858 474 4.57764e-05 465.961 4.57764e-05 456.045L-4.00543e-05 357.972C17.5978 357.972 31.8638 343.854 31.8638 326.438C31.8638 309.022 17.5978 294.904 -4.00543e-05 294.904L4.57764e-05 17.9546Z" fill="#E7E7E7"/>
</svg>
