<svg width="48" height="48" viewBox="0 0 48 48" fill="none" xmlns="http://www.w3.org/2000/svg">
<g clip-path="url(#clip0_2453_4369)">
<path d="M34.2222 34.2222V21.7222H14.7778V34.2222H34.2222ZM34.2222 14.7778C34.9589 14.7778 35.6655 15.0704 36.1864 15.5914C36.7073 16.1123 37 16.8188 37 17.5556V34.2222C37 34.9589 36.7073 35.6655 36.1864 36.1864C35.6655 36.7073 34.9589 37 34.2222 37H14.7778C13.2361 37 12 35.75 12 34.2222V17.5556C12 16.8188 12.2927 16.1123 12.8136 15.5914C13.3345 15.0704 14.0411 14.7778 14.7778 14.7778H16.1667V12H18.9444V14.7778H30.0556V12H32.8333V14.7778H34.2222ZM31.4444 31.4444H25.8889V25.8889H31.4444V31.4444Z" fill="#1B6444"/>
</g>
<defs>
<clipPath id="clip0_2453_4369">
<rect x="4" y="4" width="40" height="40" rx="20" fill="white"/>
</clipPath>
</defs>
</svg>
