<svg width="24" height="24" viewBox="0 0 24 24" fill="none" xmlns="http://www.w3.org/2000/svg">
<path d="M18.4898 5.01C18.2944 4.42 17.7471 4 17.1021 4H6.3521C5.7071 4 5.1696 4.42 4.96437 5.01L2.93164 11V19C2.93164 19.55 3.37141 20 3.90891 20H4.88619C5.42369 20 5.86346 19.55 5.86346 19V18H17.5907V19C17.5907 19.55 18.0305 20 18.568 20H19.5453C20.0828 20 20.5226 19.55 20.5226 19V11L18.4898 5.01ZM6.3521 15C5.54096 15 4.88619 14.33 4.88619 13.5C4.88619 12.67 5.54096 12 6.3521 12C7.16323 12 7.818 12.67 7.818 13.5C7.818 14.33 7.16323 15 6.3521 15ZM17.1021 15C16.291 15 15.6362 14.33 15.6362 13.5C15.6362 12.67 16.291 12 17.1021 12C17.9132 12 18.568 12.67 18.568 13.5C18.568 14.33 17.9132 15 17.1021 15ZM4.88619 10L6.3521 5.5H17.1021L18.568 10H4.88619Z" fill="#E7F2EC"/>
</svg>
